<svg width="512" height="512" viewBox="0 0 512 512" fill="none" xmlns="http://www.w3.org/2000/svg">
<path d="M483.829 28.1642C465.059 9.38925 442.444 4.57764e-05 416.002 4.57764e-05H95.9994C69.5573 4.57764e-05 46.9425 9.38925 28.164 28.1642C9.38914 46.9426 -6.10352e-05 69.5563 -6.10352e-05 95.9995V415.998C-6.10352e-05 442.439 9.38914 465.055 28.164 483.834C46.9425 502.612 69.5573 512.001 95.9994 512.001H415.998C442.44 512.001 465.055 502.612 483.825 483.834C502.604 465.055 511.993 442.44 511.993 415.998V95.9995C511.992 69.5563 502.603 46.9391 483.829 28.1642Z" fill="white"/>
<path d="M316.063 266.885C300.043 241.825 272.76 226.861 243.08 226.861C213.399 226.861 186.116 241.825 170.099 266.885L131.498 327.269C125.094 337.286 122.139 348.862 122.951 360.734C123.763 372.608 128.269 383.666 135.98 392.719C143.696 401.765 153.892 407.947 165.466 410.6C177.038 413.252 188.903 412.12 199.772 407.329L200.5 407.004C227.851 395.19 259.104 395.298 286.385 407.329C293.421 410.431 300.877 412 308.401 412C312.491 412 316.606 411.534 320.682 410.603C332.256 407.953 342.452 401.77 350.171 392.722C357.884 383.677 362.393 372.617 363.208 360.739C364.022 348.862 361.067 337.289 354.663 327.266L316.063 266.885ZM141.896 266.805C153.379 262.383 162.103 253.103 166.46 240.676C170.608 228.85 170.268 215.499 165.501 203.079C160.731 190.669 152.057 180.536 141.073 174.547C129.535 168.258 116.859 167.234 105.394 171.665C82.3301 180.558 71.7454 209.139 81.8024 235.392C89.8367 256.287 108.575 269.477 127.519 269.477C132.435 269.484 137.309 268.578 141.896 266.805ZM216.794 219.497C245.627 219.497 269.086 192.697 269.086 159.755C269.086 126.805 245.627 100 216.794 100C187.962 100 164.507 126.805 164.507 159.755C164.507 192.697 187.962 219.497 216.794 219.497ZM307.102 234.175H307.105C311.448 235.622 315.995 236.359 320.571 236.356C341.599 236.356 362.092 221.009 369.911 197.422C374.415 183.845 374.118 169.489 369.077 157.002C363.803 143.929 354.027 134.439 341.55 130.281C329.069 126.122 315.573 127.857 303.544 135.162C292.053 142.139 283.247 153.461 278.75 167.038C269.257 195.68 281.976 225.797 307.102 234.175ZM417.225 227.202L417.216 227.194C397.333 212.465 367.594 218.849 350.921 241.433C334.263 264.028 336.868 294.403 356.722 309.144C363.963 314.523 372.519 317.094 381.275 317.094C396.537 317.094 412.415 309.282 423.029 294.919C439.684 272.323 437.082 241.948 417.225 227.202Z" fill="black"/>
</svg>

