<svg width="400" height="400" viewBox="0 0 400 400" fill="none" xmlns="http://www.w3.org/2000/svg">
  <style>
    path {
      fill: black;
    }
    @media (prefers-color-scheme: dark) {
      path {
        fill: white;
      }
    }
  </style>
<path d="M250.615 209.141C237.115 188.097 214.124 175.531 189.112 175.531C164.1 175.531 141.109 188.097 127.612 209.141L95.0828 259.848C89.6863 268.26 87.1961 277.98 87.8799 287.949C88.5642 297.921 92.3617 307.206 98.8597 314.809C105.362 322.405 113.954 327.597 123.707 329.824C133.459 332.052 143.457 331.101 152.617 327.077L153.231 326.805C176.279 316.884 202.616 316.975 225.605 327.077C231.535 329.683 237.818 331 244.158 331C247.605 331 251.072 330.609 254.508 329.827C264.261 327.601 272.853 322.41 279.357 314.812C285.858 307.216 289.657 297.928 290.343 287.954C291.03 277.98 288.54 268.262 283.143 259.845L250.615 209.141ZM103.845 209.074C113.522 205.36 120.874 197.568 124.545 187.132C128.04 177.201 127.754 165.989 123.736 155.56C119.717 145.138 112.407 136.63 103.151 131.6C93.4281 126.319 82.7465 125.46 73.085 129.181C53.649 136.648 44.7293 160.649 53.2043 182.695C59.9747 200.241 75.7657 211.317 91.7295 211.317C95.8718 211.323 99.9794 210.562 103.845 209.074ZM166.961 169.347C191.259 169.347 211.027 146.842 211.027 119.179C211.027 91.5095 191.259 69 166.961 69C142.665 69 122.899 91.5095 122.899 119.179C122.899 146.842 142.664 169.347 166.961 169.347ZM243.064 181.672H243.066C246.726 182.888 250.557 183.506 254.414 183.504C272.134 183.504 289.403 170.616 295.992 150.81C299.788 139.409 299.537 127.353 295.289 116.867C290.845 105.889 282.607 97.9202 272.093 94.4283C261.575 90.9357 250.202 92.3925 240.066 98.5268C230.382 104.386 222.961 113.894 219.171 125.295C211.171 149.346 221.89 174.637 243.064 181.672ZM335.864 175.817L335.857 175.81C319.101 163.442 294.04 168.803 279.989 187.767C265.952 206.741 268.147 232.249 284.878 244.627C290.98 249.144 298.19 251.303 305.569 251.303C318.43 251.303 331.81 244.744 340.754 232.682C354.79 213.707 352.597 188.2 335.864 175.817V175.817Z" fill="black"/>
</svg>
