<svg width="22" height="21" viewBox="0 0 22 21" fill="black" xmlns="http://www.w3.org/2000/svg">
<path d="M18.8 20.5998L14.6 16.4498C14.0167 16.6331 13.4292 16.7706 12.8375 16.8623C12.2458 16.954 11.6333 16.9998 11 16.9998C8.48333 16.9998 6.24167 16.304 4.275 14.9123C2.30833 13.5206 0.883333 11.7165 0 9.49981C0.35 8.61647 0.791667 7.79564 1.325 7.03731C1.85833 6.27897 2.46667 5.5998 3.15 4.9998L0.4 2.1998L1.8 0.799805L20.2 19.1998L18.8 20.5998ZM11 13.9998C11.1833 13.9998 11.3542 13.9915 11.5125 13.9748C11.6708 13.9581 11.8417 13.9248 12.025 13.8748L6.625 8.47481C6.575 8.65814 6.54167 8.82897 6.525 8.98731C6.50833 9.14564 6.5 9.31647 6.5 9.49981C6.5 10.7498 6.9375 11.8123 7.8125 12.6873C8.6875 13.5623 9.75 13.9998 11 13.9998ZM18.3 14.4498L15.125 11.2998C15.2417 11.0165 15.3333 10.729 15.4 10.4373C15.4667 10.1456 15.5 9.83314 15.5 9.49981C15.5 8.24981 15.0625 7.18731 14.1875 6.3123C13.3125 5.4373 12.25 4.9998 11 4.9998C10.6667 4.9998 10.3542 5.03314 10.0625 5.0998C9.77083 5.16647 9.48333 5.26647 9.2 5.39981L6.65 2.8498C7.33333 2.56647 8.03333 2.35397 8.75 2.2123C9.46667 2.07064 10.2167 1.9998 11 1.9998C13.5167 1.9998 15.7583 2.69564 17.725 4.08731C19.6917 5.47897 21.1167 7.28314 22 9.49981C21.6167 10.4831 21.1125 11.3956 20.4875 12.2373C19.8625 13.079 19.1333 13.8165 18.3 14.4498ZM13.675 9.84981L10.675 6.84981C11.1417 6.76647 11.5708 6.80397 11.9625 6.96231C12.3542 7.12064 12.6917 7.34981 12.975 7.64981C13.2583 7.94981 13.4625 8.29564 13.5875 8.68731C13.7125 9.07897 13.7417 9.46647 13.675 9.84981Z" />
</svg>
