<svg width="104" height="410" viewBox="0 0 104 410" fill="none" xmlns="http://www.w3.org/2000/svg">
<path d="M52 102.6C38.4209 102.6 25.398 97.2057 15.7961 87.6038C6.19428 78.002 0.800003 64.979 0.800003 51.4C0.800003 37.8209 6.19428 24.7979 15.7961 15.1961C25.398 5.59422 38.4209 0.199951 52 0.199951C65.5791 0.199951 78.602 5.59422 88.2039 15.1961C97.8057 24.7979 103.2 37.8209 103.2 51.4C103.2 64.979 97.8057 78.002 88.2039 87.6038C78.602 97.2057 65.5791 102.6 52 102.6ZM52 256.2C38.4209 256.2 25.398 250.806 15.7961 241.204C6.19428 231.602 0.800003 218.579 0.800003 205C0.800003 191.421 6.19428 178.398 15.7961 168.796C25.398 159.194 38.4209 153.8 52 153.8C65.5791 153.8 78.602 159.194 88.2039 168.796C97.8057 178.398 103.2 191.421 103.2 205C103.2 218.579 97.8057 231.602 88.2039 241.204C78.602 250.806 65.5791 256.2 52 256.2ZM52 409.8C38.4209 409.8 25.398 404.406 15.7961 394.804C6.19428 385.202 0.800003 372.179 0.800003 358.6C0.800003 345.021 6.19428 331.998 15.7961 322.396C25.398 312.794 38.4209 307.4 52 307.4C65.5791 307.4 78.602 312.794 88.2039 322.396C97.8057 331.998 103.2 345.021 103.2 358.6C103.2 372.179 97.8057 385.202 88.2039 394.804C78.602 404.406 65.5791 409.8 52 409.8Z" fill="black"/>
</svg>
