<svg viewBox="0 0 429 431" fill="none" xmlns="http://www.w3.org/2000/svg">
<path d="M421.462 163.8L226.902 4.6703C223.254 1.71038 218.698 0.0949707 214 0.0949707C209.302 0.0949707 204.746 1.71038 201.098 4.6703L6.53763 163.8C3.09639 167.214 0.977653 171.738 0.558269 176.567C0.138886 181.396 1.44605 186.218 4.24725 190.174C7.04846 194.13 11.1621 196.964 15.8565 198.172C20.5509 199.381 25.5217 198.885 29.8848 196.773V368.6C30.5254 385.477 37.8219 401.415 50.1794 412.928C62.5368 424.441 78.9499 430.593 95.8304 430.04H173.245C178.676 430.04 183.886 427.882 187.726 424.041C191.567 420.201 193.725 414.992 193.725 409.56V310.846C193.7 306.753 194.902 302.746 197.177 299.343C199.451 295.94 202.693 293.296 206.484 291.753C210.276 290.21 214.442 289.839 218.447 290.687C222.451 291.535 226.11 293.563 228.95 296.51C232.659 300.358 234.717 305.502 234.685 310.846V409.56C234.685 414.992 236.843 420.201 240.683 424.041C244.524 427.882 249.733 430.04 255.165 430.04H332.784C349.63 430.538 365.99 424.361 378.303 412.854C390.616 401.347 397.884 385.441 398.525 368.6V197.182C401.599 198.91 405.037 199.892 408.56 200.049C412.76 200.016 416.847 198.692 420.269 196.257C423.691 193.822 426.282 190.394 427.69 186.438C429.099 182.481 429.256 178.187 428.142 174.138C427.028 170.088 424.696 166.479 421.462 163.8ZM332.784 389.08H275.645V310.846C275.645 294.551 269.172 278.924 257.649 267.402C246.127 255.879 230.5 249.406 214.205 249.406C197.91 249.406 182.282 255.879 170.76 267.402C159.238 278.924 152.765 294.551 152.765 310.846V389.08H95.8304C89.8287 389.546 83.8791 387.675 79.2234 383.859C74.5678 380.043 71.5661 374.576 70.8448 368.6V163.8L214.205 46.6543L357.565 164.209V368.6C356.893 374.559 353.934 380.025 349.311 383.845C344.688 387.665 338.763 389.542 332.784 389.08Z" fill="black"/>
</svg>
