<svg width="512" height="384" viewBox="0 0 512 384" fill="none" xmlns="http://www.w3.org/2000/svg">
<path d="M480 384.001H32.0002C14.3264 384.001 0 369.673 0 352C0 334.328 14.3264 320 32.0002 320H480.001C497.674 320 512.001 334.328 512.001 352C512 369.673 497.674 384.001 480 384.001ZM480 224H32.0002C14.3264 224 0 209.673 0 192.001C0 174.328 14.3264 160 32.0002 160H480.001C497.674 160 512.001 174.327 512.001 192.001C512.001 209.674 497.674 224 480 224ZM480 63.9997H32.0002C14.3264 63.9997 0 49.6733 0 31.9995C0 14.3256 14.3264 -0.000732422 32.0002 -0.000732422H480.001C497.674 -0.000732422 512.001 14.3256 512.001 31.9995C512.001 49.6733 497.674 63.9997 480 63.9997Z" fill="black"/>
</svg>
