<svg viewBox="0 0 512 370" fill="none" xmlns="http://www.w3.org/2000/svg">
<path d="M490.667 206.224H21.3333C9.55733 206.224 0 196.667 0 184.891C0 173.115 9.55733 163.557 21.3333 163.557H490.667C502.443 163.557 512 173.115 512 184.891C512 196.667 502.443 206.224 490.667 206.224ZM490.667 42.6667H21.3333C9.55733 42.6667 0 33.1093 0 21.3333C0 9.55733 9.55733 0 21.3333 0H490.667C502.443 0 512 9.55733 512 21.3333C512 33.1093 502.443 42.6667 490.667 42.6667ZM490.667 369.776H21.3333C9.55733 369.776 0 360.219 0 348.443C0 336.667 9.55733 327.109 21.3333 327.109H490.667C502.443 327.109 512 336.667 512 348.443C512 360.219 502.443 369.776 490.667 369.776Z" fill="black"/>
</svg>
